<svg version="1.1" id="Layer_1" xmlns="http://www.w3.org/2000/svg" xmlns:xlink="http://www.w3.org/1999/xlink" x="0px" y="0px"
	 width="100%" viewBox="0 0 512 512" enable-background="new 0 0 512 512" xml:space="preserve">
<path fill="#FFFFFF" opacity="1.000000" stroke="none" 
	d="
M229.000000,513.000000 
	C153.040756,513.000000 77.081520,513.000000 1.061141,513.000000 
	C1.061141,342.333344 1.061141,171.666672 1.061141,1.000000 
	C26.089462,1.000000 51.076073,1.000000 76.531265,1.468657 
	C76.999840,57.195011 76.999840,112.452713 76.999840,167.699615 
	C197.963577,167.699615 318.346497,167.699615 439.000000,167.699615 
	C439.000000,111.933014 439.000000,56.466507 439.000000,1.000000 
	C463.653412,1.000000 488.306793,1.000000 512.980103,1.000000 
	C512.980103,171.561539 512.980103,342.123077 512.980103,513.000000 
	C437.646057,513.000000 362.291687,513.000000 286.643280,512.600586 
	C290.926727,511.803284 295.545074,511.667084 300.074066,510.959045 
	C314.162842,508.756500 328.379517,507.038055 342.247559,503.836517 
	C362.704376,499.113892 382.363617,492.076599 399.968079,480.076477 
	C409.288818,473.722992 416.705475,466.785004 414.065399,454.072174 
	C413.669739,452.166962 414.087463,450.092804 414.521667,448.056366 
	C442.159698,441.353424 464.615112,427.932739 479.171997,402.569702 
	C468.542236,403.894012 458.967712,409.338196 447.774933,407.610291 
	C459.634155,392.826050 463.531677,375.410248 468.817688,358.803375 
	C460.348175,367.232086 452.326691,375.932526 443.539398,383.774902 
	C432.985596,393.193909 420.489319,399.481262 406.751312,402.949554 
	C398.836823,404.947601 390.719238,406.137939 382.795013,408.102844 
	C381.026886,408.541260 379.686310,410.703857 378.086578,412.532715 
	C378.310699,425.286713 378.597168,437.580566 378.513031,449.934631 
	C369.800903,453.335815 361.591034,457.067383 353.089325,459.933197 
	C337.313293,465.251007 321.120300,468.760101 304.592072,471.171021 
	C287.386810,473.680695 270.186615,474.508209 252.887405,473.943512 
	C240.719284,473.546265 228.528366,473.057648 216.419724,471.872955 
	C206.435181,470.896118 196.504333,469.107269 186.642181,467.200043 
	C168.713593,463.732727 151.697815,457.408997 135.074829,449.441223 
	C135.308426,436.699005 135.579956,424.387848 135.897034,411.703949 
	C131.928497,409.558167 128.035568,406.640259 123.880379,406.200623 
	C99.638084,403.635284 79.217102,393.406372 62.052654,376.450165 
	C56.258999,370.726837 51.063889,364.397644 44.649998,357.299194 
	C50.484707,375.416321 54.372082,392.936707 65.999611,407.323334 
	C65.774826,407.856293 65.550041,408.389282 65.325264,408.922241 
	C55.298439,406.881683 45.271614,404.841095 34.867580,402.723755 
	C49.735836,428.149780 72.253777,441.782135 99.927605,448.556519 
	C99.987793,454.173370 99.887291,459.334473 100.060509,464.486328 
	C100.110916,465.985596 100.488091,467.980652 101.492920,468.856812 
	C107.018211,473.674500 112.382133,478.858643 118.550583,482.720428 
	C132.252213,491.298462 147.076691,497.772064 162.866577,501.277100 
	C179.893784,505.056763 197.140274,507.857941 214.311798,510.971954 
	C219.170670,511.853058 224.101929,512.334961 229.000000,513.000000 
M351.576294,401.000610 
	C359.744568,400.334930 367.941284,399.910522 376.075043,398.952087 
	C391.808380,397.098114 405.493652,390.303619 417.311737,380.055634 
	C432.398163,366.973541 438.730255,349.535339 438.877716,330.134521 
	C439.248840,281.318390 439.000519,232.497513 439.000519,183.678528 
	C439.000519,182.232559 439.000549,180.786591 439.000549,179.236694 
	C380.131470,179.236694 321.742096,179.236694 263.386108,179.236694 
	C263.386108,265.269989 263.386108,351.065430 263.386108,437.440521 
	C290.515564,419.523499 318.902466,406.171326 351.576294,401.000610 
M74.999802,234.500000 
	C74.999802,266.326538 75.064568,298.153259 74.976639,329.979553 
	C74.919647,350.608948 81.814377,367.930725 97.873970,381.466431 
	C111.829987,393.229187 127.991684,399.248352 145.911789,399.829681 
	C160.061752,400.288727 173.774307,402.416412 187.177902,406.658600 
	C208.674530,413.462158 228.703430,423.364136 247.446640,435.890900 
	C248.356186,436.498810 249.523865,436.720459 250.711548,437.175720 
	C250.711548,350.724670 250.711548,264.987183 250.711548,179.291260 
	C192.029572,179.291260 133.636688,179.291260 74.999802,179.291260 
	C74.999802,197.554413 74.999802,215.527206 74.999802,234.500000 
z"/>
<path fill="#E31D1A" opacity="1.000000" stroke="none" 
	d="
M438.531342,1.000000 
	C439.000000,56.466507 439.000000,111.933014 439.000000,167.699615 
	C318.346497,167.699615 197.963577,167.699615 76.999840,167.699615 
	C76.999840,112.452713 76.999840,57.195011 76.999924,1.468657 
	C197.354233,1.000000 317.708466,1.000000 438.531342,1.000000 
M254.980957,22.153761 
	C254.471848,20.493713 253.962738,18.833666 253.415863,17.050510 
	C249.871033,17.650700 246.883255,17.945465 244.014313,18.695089 
	C240.326187,19.658760 236.627533,20.733782 233.116516,22.199440 
	C207.085770,33.065834 193.293625,61.268841 201.776031,86.641830 
	C208.963196,108.140434 224.689621,119.687019 246.388916,124.108910 
	C248.064789,124.450424 250.467026,125.956985 250.773697,127.318100 
	C251.443390,130.290573 250.980820,133.518127 250.980820,136.853592 
	C248.086853,137.147461 245.691620,137.390671 243.272171,137.636353 
	C243.046707,140.248688 242.853119,142.491837 242.617981,145.216400 
	C231.963089,145.216400 221.729660,145.216400 211.410217,145.216400 
	C211.410217,149.992065 211.410217,154.235458 211.410217,158.624268 
	C241.732025,158.624268 271.745270,158.624268 301.798187,158.624268 
	C301.798187,153.992340 301.798187,149.744949 301.798187,144.962234 
	C291.415344,144.962234 281.338013,144.962234 270.585541,144.962234 
	C272.380402,137.943817 268.581421,136.411896 263.326324,137.044571 
	C261.636688,125.830254 261.654297,125.804871 271.553345,123.181984 
	C272.997833,122.799232 274.412537,122.244995 275.879425,122.016632 
	C280.691437,121.267509 281.989716,118.702721 280.740417,114.052513 
	C282.342316,112.763947 283.913879,111.435333 285.552063,110.194687 
	C289.678986,107.069214 293.835968,103.983421 298.563812,100.578835 
	C301.375244,94.993866 304.186707,89.408890 307.352020,83.268539 
	C307.558044,81.985878 307.764099,80.703209 308.413300,78.634895 
	C307.983185,72.048248 307.553070,65.461601 307.128418,58.161037 
	C306.725708,57.057274 306.323029,55.953514 305.909607,54.155243 
	C301.657990,48.273170 297.406342,42.391098 292.798676,35.996635 
	C291.821503,35.225273 290.844299,34.453915 289.555664,33.153885 
	C284.531799,30.764925 279.507965,28.375967 274.494598,26.012581 
	C274.494598,26.012581 274.522125,26.010824 274.203979,25.521629 
	C273.843750,25.422140 273.483490,25.322649 272.300110,24.943197 
	C269.665253,24.403366 267.030426,23.863535 264.008911,23.151022 
	C263.416992,23.161489 262.825104,23.171959 261.330078,23.015448 
	C259.201996,22.983435 257.073944,22.951420 254.980957,22.153761 
z"/>
<path fill="#112441" opacity="1.000000" stroke="none" 
	d="
M229.468658,513.000000 
	C224.101929,512.334961 219.170670,511.853058 214.311798,510.971954 
	C197.140274,507.857941 179.893784,505.056763 162.866577,501.277100 
	C147.076691,497.772064 132.252213,491.298462 118.550583,482.720428 
	C112.382133,478.858643 107.018211,473.674500 101.492920,468.856812 
	C100.488091,467.980652 100.110916,465.985596 100.060509,464.486328 
	C99.887291,459.334473 99.987793,454.173370 99.973877,448.084106 
	C99.958633,440.064545 99.953499,432.976624 100.261383,426.028839 
	C110.454185,436.449524 122.484062,443.597168 135.112778,449.872253 
	C151.697815,457.408997 168.713593,463.732727 186.642181,467.200043 
	C196.504333,469.107269 206.435181,470.896118 216.419724,471.872955 
	C228.528366,473.057648 240.719284,473.546265 252.887405,473.943512 
	C270.186615,474.508209 287.386810,473.680695 304.592072,471.171021 
	C321.120300,468.760101 337.313293,465.251007 353.089325,459.933197 
	C361.591034,457.067383 369.800903,453.335815 378.851440,449.844910 
	C392.284302,443.558899 404.157379,436.188965 414.064636,426.396606 
	C414.106354,433.945099 414.117645,441.020935 414.128906,448.096802 
	C414.087463,450.092804 413.669739,452.166962 414.065399,454.072174 
	C416.705475,466.785004 409.288818,473.722992 399.968079,480.076477 
	C382.363617,492.076599 362.704376,499.113892 342.247559,503.836517 
	C328.379517,507.038055 314.162842,508.756500 300.074066,510.959045 
	C295.545074,511.667084 290.926727,511.803284 286.174622,512.600586 
	C267.312439,513.000000 248.624878,513.000000 229.468658,513.000000 
M213.841949,485.509705 
	C213.687592,489.119080 213.433975,492.728943 213.451752,496.337463 
	C213.455963,497.191406 214.371704,498.040863 214.868134,498.892365 
	C215.484268,498.484009 216.589798,498.128937 216.640961,497.659058 
	C217.163162,492.863098 217.513947,488.048462 217.948837,482.802460 
	C215.714600,483.307861 214.374496,483.610992 212.805374,483.192993 
	C210.708664,482.800873 208.618607,482.226959 206.510422,482.149933 
	C206.010330,482.131683 205.449371,483.779388 204.916397,484.660767 
	C208.879898,486.425842 206.005920,489.465240 206.297440,491.923584 
	C206.539047,493.961121 206.972519,495.975891 207.320999,498.000763 
	C208.156036,496.123322 209.300308,494.316711 209.750595,492.351135 
	C210.362473,489.680267 209.352509,486.393433 213.841949,485.509705 
M279.635040,488.720062 
	C279.382690,488.108459 279.260803,487.384552 278.850952,486.908569 
	C277.990143,485.908722 276.978058,485.039062 276.028046,484.115936 
	C275.375763,485.271332 274.315369,486.370117 274.145782,487.592468 
	C273.582855,491.650696 273.340454,495.753387 272.975098,499.839020 
	C273.576782,500.043640 274.178467,500.248260 274.780151,500.452881 
	C275.697174,497.889526 276.614197,495.326172 277.342773,493.289612 
	C278.845490,495.185944 280.574310,497.367584 282.303101,499.549225 
	C283.308502,497.444672 284.301147,495.333771 285.340271,493.246063 
	C285.437286,493.051178 285.828003,493.002533 286.014496,492.917084 
	C287.192261,495.069122 288.366364,497.214539 289.540497,499.359924 
	C290.134155,499.073578 290.727814,498.787201 291.321472,498.500824 
	C290.101624,493.459106 288.881805,488.417389 287.546600,482.898834 
	C281.960968,484.331512 284.357178,490.170105 281.355011,492.798950 
	C280.832092,491.548065 280.386505,490.482147 279.635040,488.720062 
M298.239471,490.258636 
	C298.636719,492.699097 299.033936,495.139557 299.431854,497.584106 
	C301.887451,497.076782 301.887451,497.076782 302.150208,489.690735 
	C305.863556,490.853333 306.201721,497.158203 312.030609,496.124115 
	C311.356262,491.420654 310.791534,487.027313 310.032837,482.667725 
	C309.915680,481.994354 308.908478,481.475830 308.312897,480.885681 
	C307.843048,481.596832 307.008789,482.291199 306.975098,483.022461 
	C306.890747,484.851562 307.169464,486.697388 307.321960,488.804779 
	C303.246918,487.159821 302.832733,481.326233 297.441101,482.340088 
	C297.680084,484.853485 297.896881,487.134033 298.239471,490.258636 
M201.889404,494.199921 
	C201.512634,489.968842 205.057602,485.441010 200.931213,480.035492 
	C200.063263,483.901489 199.505417,486.386169 198.925598,488.968750 
	C195.407639,486.667328 196.809341,480.561737 191.494934,479.889648 
	C188.399551,491.178162 188.366989,493.954285 191.718765,496.114685 
	C192.294968,493.362823 192.832138,490.797333 193.621078,487.029510 
	C195.248749,490.549866 196.197235,492.987610 197.467056,495.244629 
	C198.883560,497.762360 200.499588,498.454865 201.889404,494.199921 
M241.896179,500.236664 
	C247.883835,501.163818 243.102753,495.475098 246.322174,493.990509 
	C248.505157,493.278839 249.370270,494.519012 249.399536,497.369202 
	C249.410706,498.456207 250.621613,499.530884 251.285767,500.611176 
	C251.835541,499.423645 252.759155,498.267487 252.862015,497.042419 
	C253.125748,493.901337 253.159576,490.722351 252.989670,487.574463 
	C252.936890,486.596649 251.936401,485.669922 251.369781,484.719818 
	C250.797745,485.524567 249.751373,486.319702 249.734863,487.135712 
	C249.658890,490.888550 247.651993,490.570007 246.213776,490.118988 
	C244.875015,487.780212 244.009003,486.267303 243.142975,484.754395 
	C242.526627,486.367188 241.501251,487.949951 241.380127,489.599121 
	C241.137558,492.901611 241.389740,496.240509 241.896179,500.236664 
M258.445618,485.805725 
	C254.588852,490.025787 253.888702,493.773499 256.564209,497.284027 
	C259.158295,500.687775 262.554413,501.937561 266.648956,500.097046 
	C270.442322,498.391907 272.189484,494.301300 271.055450,490.096008 
	C269.716156,485.129364 264.920471,483.227570 258.445618,485.805725 
M222.051147,490.512543 
	C220.880234,493.206329 219.709320,495.900146 218.538391,498.593964 
	C218.632904,499.070435 218.727402,499.546906 218.821899,500.023376 
	C223.766907,495.075043 228.376694,496.108276 232.942688,500.227844 
	C232.287140,496.443329 231.566513,493.386505 230.425034,490.495880 
	C229.526855,488.221466 228.109497,486.152069 226.922745,483.991608 
	C225.406204,485.934875 223.889664,487.878113 222.051147,490.512543 
M359.222900,484.669586 
	C360.053070,484.335907 360.883240,484.002228 361.900665,483.593292 
	C358.777527,479.679047 355.940643,475.996887 352.960938,472.434174 
	C351.005402,470.096008 348.879547,470.304993 348.477020,473.387634 
	C347.851776,478.175751 347.939301,483.056915 347.683868,488.818268 
	C351.792175,486.465302 352.989960,479.223755 359.222900,484.669586 
M375.915771,461.595245 
	C373.412842,461.035248 372.432526,461.755554 373.620605,464.315033 
	C374.733307,466.712097 376.037140,469.048737 376.841400,471.545776 
	C377.133911,472.453918 376.226898,473.748413 375.867188,474.866638 
	C374.965454,474.311279 373.678619,473.969269 373.231354,473.162048 
	C371.640137,470.290497 370.334778,467.260498 368.300171,462.985809 
	C367.446106,465.079651 366.456299,466.294922 366.732391,467.043121 
	C367.815338,469.977966 369.187531,472.823975 370.660461,475.592255 
	C372.331940,478.733734 375.176331,478.868866 377.920441,477.482025 
	C380.585449,476.135193 381.613647,473.769775 380.234467,470.798431 
	C378.912292,467.950043 377.586273,465.103424 375.915771,461.595245 
M160.352646,489.170898 
	C163.607620,490.966858 166.785187,491.176880 170.985596,488.241058 
	C169.155533,487.617004 168.111725,486.910156 167.135544,486.993683 
	C164.152512,487.248962 161.044373,487.323547 160.315140,483.834503 
	C159.959106,482.131042 160.888062,479.527863 162.159073,478.252563 
	C164.491898,475.911865 166.904343,477.405090 169.152679,479.222412 
	C169.903427,479.829254 171.363953,479.558044 173.219101,479.770630 
	C169.233688,473.826874 164.115341,472.437408 160.028824,475.398499 
	C155.839935,478.433716 155.687027,484.135986 160.352646,489.170898 
M178.032074,492.282959 
	C179.566910,492.954773 181.048615,493.879822 182.653748,494.216614 
	C183.888626,494.475677 185.278778,493.994629 186.599884,493.842712 
	C185.592957,492.925323 184.554581,492.039490 183.590805,491.078796 
	C183.002045,490.492035 182.256836,489.845245 182.109360,489.118378 
	C182.027588,488.715179 182.939743,487.852234 183.562805,487.616394 
	C184.985443,487.077911 186.505905,486.797882 187.986618,486.412903 
	C186.555069,485.590515 185.098160,484.807617 183.710876,483.916351 
	C183.388199,483.709045 183.302414,483.132965 182.878647,482.248779 
	C185.075653,482.248779 186.922531,482.248779 189.679611,482.248779 
	C187.476624,477.627655 183.847961,478.794678 180.685226,478.055908 
	C179.778076,482.717712 178.927963,487.086304 178.032074,492.282959 
M137.888214,478.658295 
	C137.057343,476.880005 131.741959,477.376678 134.493011,474.044464 
	C137.115875,473.873322 138.926300,473.755219 140.736725,473.637085 
	C140.690735,473.181213 140.644745,472.725342 140.598755,472.269470 
	C139.155838,471.274811 137.712921,470.280182 136.270004,469.285522 
	C137.797852,468.516174 138.808823,468.906006 139.822006,468.911865 
	C140.792923,468.917511 141.766129,468.524536 142.738327,468.306793 
	C142.166733,467.499542 141.766815,466.391571 140.988159,465.946960 
	C139.315704,464.992096 137.447983,464.379181 135.276123,463.464508 
	C133.105270,468.465088 131.105042,473.072693 128.481369,479.116333 
	C132.528168,477.391541 134.279388,483.461639 137.888214,478.658295 
M344.002472,489.266235 
	C348.505280,482.175690 340.631134,481.648773 337.940704,478.559174 
	C339.625092,477.824310 341.016998,477.217041 342.997223,476.353088 
	C339.533844,473.603363 336.874756,473.393890 334.919434,476.273193 
	C332.694336,479.549805 335.149414,481.426971 337.681152,483.028259 
	C339.180237,483.976349 340.691315,484.905396 342.943756,486.308014 
	C339.822632,486.920471 337.922577,487.293304 336.022522,487.666168 
	C336.084198,488.373627 336.145874,489.081116 336.207550,489.788605 
	C338.613556,489.788605 341.019592,489.788605 344.002472,489.266235 
M385.581665,472.140533 
	C387.624969,470.888641 391.149414,469.917358 391.449158,468.335144 
	C392.602081,462.250092 385.900208,463.260742 382.964325,460.574005 
	C384.597046,459.794708 385.977753,459.135712 387.918152,458.209564 
	C384.166534,455.099304 381.540070,455.893250 379.924438,458.936066 
	C378.270813,462.050446 380.463531,463.784546 383.175354,464.941864 
	C384.938324,465.694244 386.663818,466.534454 389.105621,467.656891 
	C386.140289,468.789978 384.626740,469.368347 383.113159,469.946686 
	C383.659943,470.625885 384.206726,471.305084 385.581665,472.140533 
M149.483566,470.913940 
	C144.839645,475.237518 152.213150,478.653107 150.585815,483.163940 
	C149.712936,482.706879 149.182114,482.391571 148.621521,482.143555 
	C147.625107,481.702667 146.610657,481.302582 145.603745,480.885406 
	C145.848633,482.155792 145.769287,484.301331 146.398453,484.534424 
	C148.381271,485.268982 150.962296,486.050262 152.659073,485.312439 
	C153.793854,484.818970 154.418152,481.693054 154.181686,479.887756 
	C153.909210,477.807526 152.437683,475.884338 151.417557,473.747742 
	C153.468063,474.091949 155.101761,474.366180 156.735443,474.640442 
	C156.906540,473.780823 157.077652,472.921173 157.248749,472.061554 
	C154.878128,471.528168 152.507523,470.994751 149.483566,470.913940 
M322.564880,477.976746 
	C321.072388,479.235291 318.713867,480.290955 318.356781,481.815460 
	C318.062073,483.073486 319.954376,485.054962 321.211090,486.405487 
	C322.448059,487.734772 324.104706,488.673523 326.463531,490.451874 
	C323.108093,490.723572 321.309082,490.869263 318.272736,491.115143 
	C322.040253,494.705719 325.290924,495.501648 327.341248,492.843140 
	C332.517029,486.132202 323.838196,485.491547 321.797424,482.210419 
	C323.438995,481.466888 324.786560,480.856537 326.134094,480.246155 
	C325.211334,479.502594 324.288605,478.759003 322.564880,477.976746 
M363.823486,473.746979 
	C362.162048,471.915588 363.364838,467.094482 358.053345,468.209534 
	C359.130157,471.026398 360.002930,473.341309 360.899811,475.646851 
	C361.843201,478.072052 362.809570,480.488312 363.871307,483.175171 
	C366.415314,482.170044 368.502045,481.345551 371.086639,480.324402 
	C370.167664,479.252289 369.335510,477.920410 369.069092,478.025330 
	C365.502014,479.429901 364.890411,476.852875 363.823486,473.746979 
M173.852463,482.242554 
	C171.571701,491.216034 171.571701,491.216034 174.887772,492.302307 
	C175.866837,488.101410 176.927475,483.939484 177.739868,479.729645 
	C177.898315,478.908661 177.092377,477.901550 176.731247,476.980286 
	C175.999237,477.651489 175.112762,478.221191 174.583832,479.025879 
	C174.156372,479.676208 174.159714,480.609711 173.852463,482.242554 
M317.129517,489.119263 
	C315.951660,486.090515 317.697449,481.576660 313.092926,480.217987 
	C313.036957,484.562286 313.564575,488.631927 314.379883,492.643127 
	C314.589630,493.674774 315.705536,494.522247 316.405121,495.454315 
	C316.841644,494.263580 317.389984,493.097992 317.665771,491.871124 
	C317.796661,491.289032 317.407379,490.590027 317.129517,489.119263 
M294.786255,483.352386 
	C293.797882,483.765747 291.933563,484.228973 291.953796,484.584961 
	C292.217194,489.212524 292.748016,493.824860 293.211426,498.441040 
	C293.788269,498.504913 294.365112,498.568787 294.941956,498.632660 
	C295.316864,497.391846 296.056183,496.133667 295.998016,494.913513 
	C295.826324,491.310150 295.339203,487.721802 294.786255,483.352386 
z"/>
<path fill="#0E2240" opacity="1.000000" stroke="none" 
	d="
M351.121033,401.000732 
	C318.902466,406.171326 290.515564,419.523499 263.386108,437.440521 
	C263.386108,351.065430 263.386108,265.269989 263.386108,179.236694 
	C321.742096,179.236694 380.131470,179.236694 439.000549,179.236694 
	C439.000549,180.786591 439.000519,182.232559 439.000519,183.678528 
	C439.000519,232.497513 439.248840,281.318390 438.877716,330.134521 
	C438.730255,349.535339 432.398163,366.973541 417.311737,380.055634 
	C405.493652,390.303619 391.808380,397.098114 376.075043,398.952087 
	C367.941284,399.910522 359.744568,400.334930 351.121033,401.000732 
M406.088959,341.513885 
	C408.457214,339.828308 408.241486,338.346191 406.114197,336.432648 
	C401.675964,332.440399 397.445343,328.217377 393.479156,324.423706 
	C395.318176,319.828156 396.976929,316.196045 398.207001,312.424164 
	C398.992401,310.015839 400.063599,309.001312 402.734528,309.099091 
	C408.672424,309.316559 414.623749,309.166962 420.765350,309.166962 
	C420.765350,301.071503 420.765350,293.496857 420.765350,285.415588 
	C416.237976,285.415588 411.888062,284.987030 407.659149,285.519470 
	C401.812775,286.255554 398.297791,284.698364 397.212341,278.450439 
	C396.745270,275.761841 395.118591,273.274658 393.482880,269.439514 
	C398.218719,264.983032 403.258942,260.240082 407.962311,255.814163 
	C402.477203,250.187866 397.160187,244.733948 391.410522,238.836273 
	C388.210266,242.150604 384.764404,245.291946 381.844360,248.863235 
	C378.910492,252.451385 376.151947,253.858856 371.941437,250.788605 
	C370.124725,249.463882 367.735535,248.644440 365.491760,248.253845 
	C362.482544,247.729980 361.859741,246.195816 361.951447,243.442307 
	C362.136810,237.875183 362.006714,232.297546 362.006714,226.787247 
	C353.656677,226.787247 346.072113,226.787247 338.148895,226.787247 
	C338.148895,233.133133 338.270203,239.116226 338.054840,245.087173 
	C338.007141,246.409988 337.100189,248.275543 336.021179,248.883408 
	C332.296936,250.981430 328.321716,252.633911 323.230988,255.024872 
	C318.534943,249.858307 313.546478,244.370026 308.795197,239.142700 
	C302.983307,244.926437 297.571838,250.311722 291.286499,256.566620 
	C294.858551,259.781525 298.348480,263.385925 302.305786,266.370636 
	C307.657166,270.406860 309.192932,274.611450 305.981293,281.029480 
	C304.404114,284.181244 303.286560,285.648834 299.681885,285.497223 
	C292.933594,285.213348 286.164795,285.415527 279.392944,285.415527 
	C279.392944,293.701691 279.392944,301.144135 279.392944,309.031494 
	C287.885956,309.031494 296.150116,309.031494 304.408875,309.031494 
	C305.586670,312.208282 306.365356,315.124420 307.722321,317.740601 
	C309.096710,320.390411 308.785583,322.136108 306.545135,324.139801 
	C301.372131,328.766144 296.423615,333.643555 291.539062,338.272278 
	C297.731171,344.451569 303.131104,349.840332 309.451477,356.147583 
	C314.473907,350.461853 319.620575,344.635498 324.415710,339.207092 
	C328.668762,341.227081 331.744171,342.920654 334.994324,344.153381 
	C337.347931,345.046082 338.303558,346.208618 338.216705,348.828613 
	C338.008698,355.104980 338.149475,361.392883 338.149475,367.779663 
	C346.399353,367.779663 354.091217,367.779663 362.108521,367.779663 
	C362.108521,360.439026 362.108521,353.481903 362.108521,346.801758 
	C367.219208,344.782318 371.945984,342.914581 378.120941,340.474609 
	C382.398987,345.262817 387.006439,350.419708 391.905914,355.903442 
	C396.725616,351.016724 401.159119,346.521576 406.088959,341.513885 
z"/>
<path fill="#0E2240" opacity="1.000000" stroke="none" 
	d="
M74.999802,234.000000 
	C74.999802,215.527206 74.999802,197.554413 74.999802,179.291260 
	C133.636688,179.291260 192.029572,179.291260 250.711548,179.291260 
	C250.711548,264.987183 250.711548,350.724670 250.711548,437.175720 
	C249.523865,436.720459 248.356186,436.498810 247.446640,435.890900 
	C228.703430,423.364136 208.674530,413.462158 187.177902,406.658600 
	C173.774307,402.416412 160.061752,400.288727 145.911789,399.829681 
	C127.991684,399.248352 111.829987,393.229187 97.873970,381.466431 
	C81.814377,367.930725 74.919647,350.608948 74.976639,329.979553 
	C75.064568,298.153259 74.999802,266.326538 74.999802,234.000000 
M234.972015,350.026428 
	C234.866531,345.961700 234.761032,341.897003 234.798996,336.925446 
	C234.798996,305.712372 234.798996,274.499268 234.798996,242.317886 
	C230.855804,246.042145 227.088821,246.883286 222.534927,245.073044 
	C203.640244,237.562119 184.856369,238.783096 166.138412,246.059189 
	C164.139297,246.836304 161.300644,246.826950 159.308670,246.033966 
	C141.964798,239.129486 124.414764,238.078903 106.631844,243.855972 
	C101.274490,245.596375 96.171638,247.641098 90.979935,242.322113 
	C90.773003,244.432312 90.570717,245.543411 90.568687,246.654861 
	C90.516861,274.951935 90.472244,303.249023 90.478951,331.546112 
	C90.479454,333.693298 90.870338,335.840454 90.544235,338.601807 
	C90.561089,342.661346 90.577942,346.720917 90.298264,351.661316 
	C89.921066,359.846741 89.921066,359.847321 98.121552,359.847382 
	C141.590881,359.847595 185.060211,359.847473 228.529541,359.847473 
	C230.482697,359.847473 232.435852,359.847473 234.884491,359.847473 
	C234.884491,356.500763 234.884491,353.723114 234.972015,350.026428 
z"/>
<path fill="#919387" opacity="1.000000" stroke="none" 
	d="
M414.521667,448.056366 
	C414.117645,441.020935 414.106354,433.945099 414.076660,425.994141 
	C414.329559,421.071289 412.591309,418.958466 408.383240,418.843292 
	C405.945618,418.776550 403.494659,417.914703 401.092346,418.069916 
	C392.738098,418.609894 385.183014,416.417633 378.148895,412.072632 
	C379.686310,410.703857 381.026886,408.541260 382.795013,408.102844 
	C390.719238,406.137939 398.836823,404.947601 406.751312,402.949554 
	C420.489319,399.481262 432.985596,393.193909 443.539398,383.774902 
	C452.326691,375.932526 460.348175,367.232086 468.817688,358.803375 
	C463.531677,375.410248 459.634155,392.826050 447.774933,407.610291 
	C458.967712,409.338196 468.542236,403.894012 479.171997,402.569702 
	C464.615112,427.932739 442.159698,441.353424 414.521667,448.056366 
z"/>
<path fill="#919387" opacity="1.000000" stroke="none" 
	d="
M99.948364,425.888733 
	C99.953499,432.976624 99.958633,440.064545 99.917496,447.624847 
	C72.253777,441.782135 49.735836,428.149780 34.867580,402.723755 
	C45.271614,404.841095 55.298439,406.881683 65.325264,408.922241 
	C65.550041,408.389282 65.774826,407.856293 65.999611,407.323334 
	C54.372082,392.936707 50.484707,375.416321 44.649998,357.299194 
	C51.063889,364.397644 56.258999,370.726837 62.052654,376.450165 
	C79.217102,393.406372 99.638084,403.635284 123.880379,406.200623 
	C128.035568,406.640259 131.928497,409.558167 135.583633,411.835175 
	C128.923859,416.243988 122.186279,418.407623 114.653076,418.067322 
	C111.738045,417.935608 108.792442,418.737976 105.854721,418.793274 
	C101.008904,418.884583 99.556755,421.560547 99.948364,425.888733 
z"/>
<path fill="#746660" opacity="1.000000" stroke="none" 
	d="
M378.086578,412.532745 
	C385.183014,416.417633 392.738098,418.609894 401.092346,418.069916 
	C403.494659,417.914703 405.945618,418.776550 408.383240,418.843292 
	C412.591309,418.958466 414.329559,421.071289 414.046204,425.521515 
	C404.157379,436.188965 392.284302,443.558899 379.222046,449.784698 
	C378.597168,437.580566 378.310699,425.286713 378.086578,412.532745 
z"/>
<path fill="#746660" opacity="1.000000" stroke="none" 
	d="
M100.261383,426.028839 
	C99.556755,421.560547 101.008904,418.884583 105.854721,418.793274 
	C108.792442,418.737976 111.738045,417.935608 114.653076,418.067322 
	C122.186279,418.407623 128.923859,416.243988 135.538086,412.207886 
	C135.579956,424.387848 135.308426,436.699005 135.074829,449.441223 
	C122.484062,443.597168 110.454185,436.449524 100.261383,426.028839 
z"/>
<path fill="#F9FAFD" opacity="1.000000" stroke="none" 
	d="
M264.395569,23.323704 
	C267.030426,23.863535 269.665253,24.403366 272.864349,25.325661 
	C273.793091,25.809023 274.157623,25.909924 274.522125,26.010824 
	C274.522125,26.010824 274.494598,26.012581 274.639160,26.334545 
	C278.012817,30.127590 281.241882,33.598671 284.439575,37.036030 
	C286.519440,35.750957 288.193298,34.716759 289.867126,33.682556 
	C290.844299,34.453915 291.821503,35.225273 292.663757,36.466347 
	C287.597473,39.131336 287.111206,42.164417 290.162933,46.563850 
	C292.213715,49.520290 292.693481,54.492336 295.301636,55.876522 
	C297.921631,57.266983 302.308044,55.329060 305.920349,54.849747 
	C306.323029,55.953514 306.725708,57.057274 306.743286,58.603729 
	C303.990021,59.737106 301.515106,60.198055 299.303680,61.225948 
	C298.353180,61.667751 297.262054,63.394680 297.413269,64.351562 
	C298.174255,69.168282 299.324310,73.923531 300.347778,78.747566 
	C303.080963,78.988884 305.525543,79.204712 307.970123,79.420547 
	C307.764099,80.703209 307.558044,81.985878 306.780701,83.543816 
	C304.307648,83.624557 302.405945,83.430016 300.455231,83.230461 
	C299.582550,89.455940 298.781708,95.168823 297.980896,100.881721 
	C293.835968,103.983421 289.678986,107.069214 285.552063,110.194687 
	C283.913879,111.435333 282.342316,112.763947 280.146301,114.126518 
	C279.379700,114.171051 279.207214,114.141586 279.039062,113.690819 
	C279.343323,111.065331 279.643280,108.861137 279.974487,106.427383 
	C277.024231,106.427383 274.592743,106.427383 271.801025,106.427383 
	C272.835602,109.957512 273.703491,112.918953 274.225342,116.019638 
	C272.683655,116.421059 271.487946,116.683220 270.210999,116.564293 
	C269.218872,113.455223 268.308014,110.727249 267.164856,107.303452 
	C264.667542,109.095490 262.788574,110.443802 260.670166,111.963951 
	C262.671021,114.221870 264.280243,116.037857 265.529999,117.935951 
	C261.039917,118.055580 256.909332,118.093109 252.854034,117.722496 
	C253.096954,114.966835 254.188644,112.130920 253.255447,110.365181 
	C250.660660,105.455528 247.224503,100.990555 243.889084,96.003670 
	C240.621613,97.783691 237.358643,99.561256 232.926941,101.975525 
	C239.336441,107.708733 245.066544,112.834221 250.398666,117.998032 
	C246.979660,117.347847 243.958649,116.659332 240.800659,115.674637 
	C238.242813,112.928917 235.494385,110.719925 233.477585,107.973640 
	C230.429779,103.823402 227.828354,104.429306 224.671539,107.824203 
	C223.443451,106.835724 222.520157,105.948372 221.833908,104.785355 
	C223.719131,103.147171 225.367325,101.784645 227.156769,100.305359 
	C225.992889,98.055054 224.934677,96.003792 223.871841,93.954926 
	C219.123581,84.801460 219.123108,84.801704 209.003815,86.822891 
	C208.550262,85.344963 208.270172,84.186935 208.365662,82.965820 
	C211.800797,81.906502 214.860397,80.910271 217.748749,79.969795 
	C216.577682,73.608246 215.514572,67.833176 214.444397,62.019718 
	C211.983368,61.639290 209.706512,61.287331 207.473663,60.573486 
	C207.924240,59.091904 208.330811,57.972206 209.194366,56.906700 
	C211.246628,56.960888 212.841888,56.960888 214.603806,56.960888 
	C215.086914,52.146759 215.515289,47.877888 216.046478,43.305145 
	C218.089920,41.315689 220.030533,39.630112 222.027863,38.353161 
	C220.949265,44.647964 219.813965,50.534134 218.582870,56.916927 
	C221.901337,56.916927 224.027725,56.821487 226.142487,56.937649 
	C230.029968,57.151184 231.578415,55.551048 230.923813,51.600319 
	C230.439255,48.675812 229.945892,45.647408 230.201263,42.730495 
	C230.578415,38.422329 229.116180,35.747910 225.169968,34.313141 
	C228.576508,32.355160 231.777145,30.650391 235.046570,29.367073 
	C235.155334,35.167839 235.645401,35.502384 242.502884,34.137032 
	C241.624146,31.527605 240.769424,28.989475 240.164673,26.277634 
	C241.773605,25.752075 243.132584,25.400229 244.594757,25.435497 
	C245.454529,28.228809 246.211105,30.635010 247.188995,33.745129 
	C249.705597,31.980036 251.471588,30.741390 253.467926,29.341196 
	C251.714996,27.278421 250.361801,25.686026 249.371368,23.984217 
	C251.471390,23.556335 253.208633,23.237869 254.945862,22.919403 
	C257.073944,22.951420 259.201996,22.983435 261.715637,23.459051 
	C261.693359,26.193615 260.224548,29.037207 261.076141,30.672129 
	C263.651978,35.617294 267.127899,40.093632 270.386902,44.952290 
	C273.759338,43.170135 276.918274,41.500816 280.554901,39.579052 
	C278.922333,37.702751 277.828979,36.263691 276.551819,35.012234 
	C272.536926,31.078136 268.452850,27.214567 264.395569,23.323704 
M290.535675,106.073067 
	C291.983124,101.975708 294.049561,97.982399 294.759125,93.761002 
	C296.700775,82.209694 296.474365,82.170769 284.716736,84.395348 
	C284.580109,84.421181 284.474701,84.612076 284.230927,84.843407 
	C284.230927,88.642120 284.573761,92.599342 284.143860,96.470764 
	C283.611023,101.268738 285.047455,104.458900 290.535675,106.073067 
M219.999405,68.582504 
	C220.741852,71.919090 221.484314,75.255669 222.249619,78.694923 
	C223.767715,78.354118 224.740433,78.188179 225.682510,77.916145 
	C235.372314,75.118065 235.370911,75.113281 233.025223,65.359726 
	C231.926926,60.792927 228.689194,59.616688 221.592758,61.302849 
	C217.062027,62.379375 220.159317,65.508865 219.999405,68.582504 
M287.905884,51.626263 
	C286.413116,48.952263 284.920349,46.278263 283.044189,42.917557 
	C279.171875,45.537289 273.703705,47.378735 273.365173,49.906982 
	C272.873993,53.575783 275.114899,59.800331 277.976501,61.150944 
	C281.250488,62.696194 286.480133,60.097908 291.345184,59.211605 
	C289.970367,56.191360 289.085846,54.248192 287.905884,51.626263 
M256.264404,61.206924 
	C257.098083,63.463383 257.931763,65.719841 258.858124,68.227089 
	C263.862366,66.750595 268.379181,65.417908 273.579163,63.883659 
	C271.572235,59.203701 269.803772,55.079750 267.997253,50.867035 
	C263.208679,52.648373 259.097931,54.177578 254.771652,55.786949 
	C255.275589,57.621937 255.662094,59.029327 256.264404,61.206924 
M237.723862,65.753479 
	C238.334900,68.135735 238.945923,70.517998 239.755112,73.672783 
	C244.810440,72.223244 249.442139,70.895172 254.535049,69.434860 
	C253.008194,64.864189 251.717636,61.000916 250.372238,56.973476 
	C247.040558,57.704575 244.174438,58.608360 241.246292,58.909908 
	C237.128616,59.333946 236.142181,61.331688 237.723862,65.753479 
M232.973755,80.230972 
	C230.031113,81.216385 227.088470,82.201797 223.619034,83.363609 
	C226.147232,88.331169 228.437500,92.831268 230.877121,97.624802 
	C234.086502,96.021927 236.733215,94.724213 239.354538,93.377090 
	C240.209045,92.937950 240.997314,92.369957 242.003448,91.744240 
	C240.640198,88.355171 239.606522,85.018814 237.937424,82.038292 
	C237.326157,80.946701 235.208374,80.698746 232.973755,80.230972 
M286.296448,79.776718 
	C289.181183,79.363823 292.065918,78.950928 295.548889,78.452408 
	C294.601257,73.349648 293.735931,68.689919 292.896179,64.168030 
	C291.796783,63.993122 291.305328,63.804169 290.841614,63.857388 
	C279.813293,65.123070 279.295685,65.961159 281.791260,76.571968 
	C282.315826,78.802376 282.676453,80.473373 286.296448,79.776718 
M279.982635,94.580391 
	C279.651703,91.515846 279.320770,88.451302 278.946442,84.984962 
	C274.149200,86.154030 270.053558,87.152115 265.994049,88.141396 
	C268.709381,102.024666 269.427948,102.697151 279.996246,101.239708 
	C279.996246,99.393219 279.996246,97.454758 279.982635,94.580391 
M250.298264,88.719498 
	C253.205933,87.574387 256.113617,86.429276 259.609802,85.052391 
	C258.346039,81.184685 257.152710,77.532478 255.885834,73.655251 
	C253.246490,74.468781 251.363907,75.080780 249.463074,75.629517 
	C240.764832,78.140564 240.763474,78.133965 244.656418,86.340164 
	C244.870056,86.790504 244.958298,87.530273 245.287659,87.655792 
	C246.681076,88.186790 248.143661,88.536285 250.298264,88.719498 
M252.828644,101.661026 
	C254.405945,103.878647 255.983246,106.096260 257.524323,108.262962 
	C266.769440,102.289360 266.903351,101.443642 260.626923,89.624413 
	C256.786194,91.022537 252.862991,92.450676 248.418564,94.068550 
	C249.995132,96.815559 251.210175,98.932640 252.828644,101.661026 
M277.888733,79.479500 
	C277.216705,76.743698 276.814392,73.895607 275.744354,71.325516 
	C275.295258,70.246834 273.275574,68.944016 272.240631,69.144020 
	C268.397705,69.886665 264.667419,71.212082 260.310059,72.490181 
	C261.676025,76.568100 262.863373,80.112656 264.201904,84.108643 
	C268.997345,82.754303 273.389038,81.514008 277.888733,79.479500 
M249.862518,41.691383 
	C250.894043,44.796352 251.925552,47.901318 253.128113,51.521175 
	C257.712616,49.849731 261.672913,48.405872 266.182739,46.761665 
	C262.859985,41.763969 259.942902,37.376400 256.951538,32.877083 
	C254.768265,34.212112 253.161453,35.427475 251.370132,36.232079 
	C249.041992,37.277805 248.445633,38.722019 249.862518,41.691383 
M248.427948,52.340202 
	C247.846634,50.116646 247.377548,47.856335 246.663635,45.676201 
	C244.205460,38.169483 243.352692,37.754662 235.012619,39.752247 
	C234.935501,40.666130 234.743515,41.643745 234.787903,42.610504 
	C235.449417,57.022442 232.954315,56.521069 248.427948,52.340202 
z"/>
<path fill="#F2BA46" opacity="1.000000" stroke="none" 
	d="
M221.596878,105.061020 
	C222.520157,105.948372 223.443451,106.835724 224.861084,108.111694 
	C230.549484,110.990486 235.743561,113.480652 240.937622,115.970818 
	C243.958649,116.659332 246.979660,117.347847 250.727264,118.065285 
	C251.895462,118.106354 252.337097,118.118500 252.778717,118.130638 
	C256.909332,118.093109 261.039917,118.055580 265.907410,117.977219 
	C267.860291,117.606056 269.076294,117.275726 270.292267,116.945396 
	C271.487946,116.683220 272.683655,116.421059 274.514038,116.012878 
	C276.444061,115.281960 277.739410,114.697037 279.034760,114.112122 
	C279.207214,114.141586 279.379700,114.171051 279.805267,114.267052 
	C281.989716,118.702721 280.691437,121.267509 275.879425,122.016632 
	C274.412537,122.244995 272.997833,122.799232 271.553345,123.181984 
	C261.654297,125.804871 261.636688,125.830254 263.326324,137.044571 
	C268.581421,136.411896 272.380402,137.943817 270.585541,144.962234 
	C281.338013,144.962234 291.415344,144.962234 301.798187,144.962234 
	C301.798187,149.744949 301.798187,153.992340 301.798187,158.624268 
	C271.745270,158.624268 241.732025,158.624268 211.410217,158.624268 
	C211.410217,154.235458 211.410217,149.992065 211.410217,145.216400 
	C221.729660,145.216400 231.963089,145.216400 242.617981,145.216400 
	C242.853119,142.491837 243.046707,140.248688 243.272171,137.636353 
	C245.691620,137.390671 248.086853,137.147461 250.980820,136.853592 
	C250.980820,133.518127 251.443390,130.290573 250.773697,127.318100 
	C250.467026,125.956985 248.064789,124.450424 246.388916,124.108910 
	C224.689621,119.687019 208.963196,108.140434 201.776031,86.641830 
	C193.293625,61.268841 207.085770,33.065834 233.116516,22.199440 
	C236.627533,20.733782 240.326187,19.658760 244.014313,18.695089 
	C246.883255,17.945465 249.871033,17.650700 253.415863,17.050510 
	C253.962738,18.833666 254.471848,20.493713 254.963409,22.536583 
	C253.208633,23.237869 251.471390,23.556335 248.982651,23.952930 
	C246.984604,24.370169 245.738083,24.709278 244.491547,25.048386 
	C243.132584,25.400229 241.773605,25.752075 239.790009,26.353397 
	C238.037659,27.097450 236.909927,27.592028 235.537109,28.133511 
	C235.178024,28.451542 235.064041,28.722666 234.976166,28.992723 
	C235.002304,28.991657 234.977783,28.945625 234.977783,28.945621 
	C231.777145,30.650391 228.576508,32.355160 224.885101,34.450012 
	C223.940857,35.257736 223.487366,35.675381 222.735596,36.211246 
	C222.273865,36.884338 222.110413,37.439209 221.973572,37.991676 
	C222.000168,37.989273 221.971146,37.944523 221.971146,37.944527 
	C220.030533,39.630112 218.089920,41.315689 215.749969,43.514179 
	C213.146240,48.302231 210.941818,52.577374 208.737396,56.852516 
	C208.330811,57.972206 207.924240,59.091904 207.307404,60.898804 
	C205.487000,68.813087 205.281769,75.981659 207.990097,83.028908 
	C208.270172,84.186935 208.550262,85.344963 209.021790,87.165543 
	C213.341141,93.572395 217.469009,99.316704 221.596878,105.061020 
z"/>
<path fill="#7BA3D9" opacity="1.000000" stroke="none" 
	d="
M305.914978,54.502495 
	C302.308044,55.329060 297.921631,57.266983 295.301636,55.876522 
	C292.693481,54.492336 292.213715,49.520290 290.162933,46.563850 
	C287.111206,42.164417 287.597473,39.131336 292.841797,36.722542 
	C297.406342,42.391098 301.657990,48.273170 305.914978,54.502495 
z"/>
<path fill="#7DA7DC" opacity="1.000000" stroke="none" 
	d="
M264.202240,23.237362 
	C268.452850,27.214567 272.536926,31.078136 276.551819,35.012234 
	C277.828979,36.263691 278.922333,37.702751 280.554901,39.579052 
	C276.918274,41.500816 273.759338,43.170135 270.386902,44.952290 
	C267.127899,40.093632 263.651978,35.617294 261.076141,30.672129 
	C260.224548,29.037207 261.693359,26.193615 262.167206,23.542542 
	C262.825104,23.171959 263.416992,23.161489 264.202240,23.237362 
z"/>
<path fill="#7AA3DA" opacity="1.000000" stroke="none" 
	d="
M308.191711,79.027725 
	C305.525543,79.204712 303.080963,78.988884 300.347778,78.747566 
	C299.324310,73.923531 298.174255,69.168282 297.413269,64.351562 
	C297.262054,63.394680 298.353180,61.667751 299.303680,61.225948 
	C301.515106,60.198055 303.990021,59.737106 306.740540,58.960686 
	C307.553070,65.461601 307.983185,72.048248 308.191711,79.027725 
z"/>
<path fill="#82A6D9" opacity="1.000000" stroke="none" 
	d="
M298.272339,100.730270 
	C298.781708,95.168823 299.582550,89.455940 300.455231,83.230461 
	C302.405945,83.430016 304.307648,83.624557 306.603760,83.821503 
	C304.186707,89.408890 301.375244,94.993866 298.272339,100.730270 
z"/>
<path fill="#84A4D6" opacity="1.000000" stroke="none" 
	d="
M289.711395,33.418221 
	C288.193298,34.716759 286.519440,35.750957 284.439575,37.036030 
	C281.241882,33.598671 278.012817,30.127590 274.633911,26.321758 
	C279.507965,28.375967 284.531799,30.764925 289.711395,33.418221 
z"/>
<path fill="#84A4D6" opacity="1.000000" stroke="none" 
	d="
M274.363037,25.766228 
	C274.157623,25.909924 273.793091,25.809023 273.275940,25.465641 
	C273.483490,25.322649 273.843750,25.422140 274.363037,25.766228 
z"/>
<path fill="#CAC690" opacity="1.000000" stroke="none" 
	d="
M279.787964,489.068146 
	C280.386505,490.482147 280.832092,491.548065 281.355011,492.798950 
	C284.357178,490.170105 281.960968,484.331512 287.546600,482.898834 
	C288.881805,488.417389 290.101624,493.459106 291.321472,498.500824 
	C290.727814,498.787201 290.134155,499.073578 289.540497,499.359924 
	C288.366364,497.214539 287.192261,495.069122 286.014496,492.917084 
	C285.828003,493.002533 285.437286,493.051178 285.340271,493.246063 
	C284.301147,495.333771 283.308502,497.444672 282.303101,499.549225 
	C280.574310,497.367584 278.845490,495.185944 277.342773,493.289612 
	C276.614197,495.326172 275.697174,497.889526 274.780151,500.452881 
	C274.178467,500.248260 273.576782,500.043640 272.975098,499.839020 
	C273.340454,495.753387 273.582855,491.650696 274.145782,487.592468 
	C274.315369,486.370117 275.375763,485.271332 276.028076,484.115936 
	C276.978058,485.039062 277.990143,485.908722 278.850952,486.908569 
	C279.260803,487.384552 279.382690,488.108459 279.787964,489.068146 
z"/>
<path fill="#CAC590" opacity="1.000000" stroke="none" 
	d="
M298.176575,489.836609 
	C297.896881,487.134033 297.680084,484.853485 297.441101,482.340088 
	C302.832733,481.326233 303.246918,487.159821 307.321960,488.804779 
	C307.169464,486.697388 306.890747,484.851562 306.975098,483.022461 
	C307.008789,482.291199 307.843048,481.596832 308.312897,480.885681 
	C308.908478,481.475830 309.915680,481.994354 310.032837,482.667725 
	C310.791534,487.027313 311.356262,491.420654 312.030609,496.124115 
	C306.201721,497.158203 305.863556,490.853333 302.150208,489.690735 
	C301.887451,497.076782 301.887451,497.076782 299.431854,497.584106 
	C299.033936,495.139557 298.636719,492.699097 298.176575,489.836609 
z"/>
<path fill="#CAC590" opacity="1.000000" stroke="none" 
	d="
M201.822266,494.612549 
	C200.499588,498.454865 198.883560,497.762360 197.467056,495.244629 
	C196.197235,492.987610 195.248749,490.549866 193.621078,487.029510 
	C192.832138,490.797333 192.294968,493.362823 191.718765,496.114685 
	C188.366989,493.954285 188.399551,491.178162 191.494934,479.889648 
	C196.809341,480.561737 195.407639,486.667328 198.925598,488.968750 
	C199.505417,486.386169 200.063263,483.901489 200.931213,480.035492 
	C205.057602,485.441010 201.512634,489.968842 201.822266,494.612549 
z"/>
<path fill="#BBB98A" opacity="1.000000" stroke="none" 
	d="
M241.666931,499.900513 
	C241.389740,496.240509 241.137558,492.901611 241.380127,489.599121 
	C241.501251,487.949951 242.526627,486.367188 243.142975,484.754395 
	C244.009003,486.267303 244.875015,487.780212 246.213776,490.118988 
	C247.651993,490.570007 249.658890,490.888550 249.734863,487.135712 
	C249.751373,486.319702 250.797745,485.524567 251.369781,484.719818 
	C251.936401,485.669922 252.936890,486.596649 252.989670,487.574463 
	C253.159576,490.722351 253.125748,493.901337 252.862015,497.042419 
	C252.759155,498.267487 251.835541,499.423645 251.285767,500.611176 
	C250.621613,499.530884 249.410706,498.456207 249.399536,497.369202 
	C249.370270,494.519012 248.505157,493.278839 246.322174,493.990509 
	C243.102753,495.475098 247.883835,501.163818 241.666931,499.900513 
z"/>
<path fill="#CAC590" opacity="1.000000" stroke="none" 
	d="
M258.748688,485.570740 
	C264.920471,483.227570 269.716156,485.129364 271.055450,490.096008 
	C272.189484,494.301300 270.442322,498.391907 266.648956,500.097046 
	C262.554413,501.937561 259.158295,500.687775 256.564209,497.284027 
	C253.888702,493.773499 254.588852,490.025787 258.748688,485.570740 
M268.009216,493.335876 
	C266.934814,491.522675 266.208893,488.712402 264.686768,488.180450 
	C263.204285,487.662384 259.737793,489.050659 259.257263,490.371399 
	C258.627136,492.103333 259.376038,495.455750 260.766632,496.569824 
	C263.606964,498.845184 266.297119,497.375153 268.009216,493.335876 
z"/>
<path fill="#CBC691" opacity="1.000000" stroke="none" 
	d="
M222.212128,490.166962 
	C223.889664,487.878113 225.406204,485.934875 226.922745,483.991608 
	C228.109497,486.152069 229.526855,488.221466 230.425034,490.495880 
	C231.566513,493.386505 232.287140,496.443329 232.942688,500.227844 
	C228.376694,496.108276 223.766907,495.075043 218.821899,500.023376 
	C218.727402,499.546906 218.632904,499.070435 218.538391,498.593964 
	C219.709320,495.900146 220.880234,493.206329 222.212128,490.166962 
z"/>
<path fill="#CEC992" opacity="1.000000" stroke="none" 
	d="
M358.888947,484.529510 
	C352.989960,479.223755 351.792175,486.465302 347.683868,488.818268 
	C347.939301,483.056915 347.851776,478.175751 348.477020,473.387634 
	C348.879547,470.304993 351.005402,470.096008 352.960938,472.434174 
	C355.940643,475.996887 358.777527,479.679047 361.900665,483.593292 
	C360.883240,484.002228 360.053070,484.335907 358.888947,484.529510 
z"/>
<path fill="#CEC992" opacity="1.000000" stroke="none" 
	d="
M376.088867,461.925659 
	C377.586273,465.103424 378.912292,467.950043 380.234467,470.798431 
	C381.613647,473.769775 380.585449,476.135193 377.920441,477.482025 
	C375.176331,478.868866 372.331940,478.733734 370.660461,475.592255 
	C369.187531,472.823975 367.815338,469.977966 366.732391,467.043121 
	C366.456299,466.294922 367.446106,465.079651 368.300171,462.985809 
	C370.334778,467.260498 371.640137,470.290497 373.231354,473.162048 
	C373.678619,473.969269 374.965454,474.311279 375.867188,474.866638 
	C376.226898,473.748413 377.133911,472.453918 376.841400,471.545776 
	C376.037140,469.048737 374.733307,466.712097 373.620605,464.315033 
	C372.432526,461.755554 373.412842,461.035248 376.088867,461.925659 
z"/>
<path fill="#CBC691" opacity="1.000000" stroke="none" 
	d="
M160.011078,488.983521 
	C155.687027,484.135986 155.839935,478.433716 160.028824,475.398499 
	C164.115341,472.437408 169.233688,473.826874 173.219101,479.770630 
	C171.363953,479.558044 169.903427,479.829254 169.152679,479.222412 
	C166.904343,477.405090 164.491898,475.911865 162.159073,478.252563 
	C160.888062,479.527863 159.959106,482.131042 160.315140,483.834503 
	C161.044373,487.323547 164.152512,487.248962 167.135544,486.993683 
	C168.111725,486.910156 169.155533,487.617004 170.985596,488.241058 
	C166.785187,491.176880 163.607620,490.966858 160.011078,488.983521 
z"/>
<path fill="#C9C590" opacity="1.000000" stroke="none" 
	d="
M178.054962,491.868958 
	C178.927963,487.086304 179.778076,482.717712 180.685226,478.055908 
	C183.847961,478.794678 187.476624,477.627655 189.679611,482.248779 
	C186.922531,482.248779 185.075653,482.248779 182.878647,482.248779 
	C183.302414,483.132965 183.388199,483.709045 183.710876,483.916351 
	C185.098160,484.807617 186.555069,485.590515 187.986633,486.412903 
	C186.505905,486.797882 184.985443,487.077911 183.562805,487.616394 
	C182.939743,487.852234 182.027588,488.715179 182.109360,489.118378 
	C182.256836,489.845245 183.002045,490.492035 183.590805,491.078796 
	C184.554581,492.039490 185.592957,492.925323 186.599884,493.842712 
	C185.278778,493.994629 183.888626,494.475677 182.653748,494.216614 
	C181.048615,493.879822 179.566910,492.954773 178.054962,491.868958 
z"/>
<path fill="#CBC791" opacity="1.000000" stroke="none" 
	d="
M137.898880,479.043213 
	C134.279388,483.461639 132.528168,477.391541 128.481369,479.116333 
	C131.105042,473.072693 133.105270,468.465088 135.276123,463.464508 
	C137.447983,464.379181 139.315704,464.992096 140.988159,465.946960 
	C141.766815,466.391571 142.166733,467.499542 142.738327,468.306793 
	C141.766129,468.524536 140.792923,468.917511 139.822006,468.911865 
	C138.808823,468.906006 137.797852,468.516174 136.270004,469.285522 
	C137.712921,470.280182 139.155838,471.274811 140.598755,472.269470 
	C140.644745,472.725342 140.690735,473.181213 140.736725,473.637085 
	C138.926300,473.755219 137.115875,473.873322 134.493011,474.044464 
	C131.741959,477.376678 137.057343,476.880005 137.898880,479.043213 
z"/>
<path fill="#C7C38F" opacity="1.000000" stroke="none" 
	d="
M343.714050,489.527405 
	C341.019592,489.788605 338.613556,489.788605 336.207550,489.788605 
	C336.145874,489.081116 336.084198,488.373627 336.022522,487.666168 
	C337.922577,487.293304 339.822632,486.920471 342.943756,486.308014 
	C340.691315,484.905396 339.180237,483.976349 337.681152,483.028259 
	C335.149414,481.426971 332.694336,479.549805 334.919434,476.273193 
	C336.874756,473.393890 339.533844,473.603363 342.997223,476.353088 
	C341.016998,477.217041 339.625092,477.824310 337.940704,478.559174 
	C340.631134,481.648773 348.505280,482.175690 343.714050,489.527405 
z"/>
<path fill="#C8C490" opacity="1.000000" stroke="none" 
	d="
M385.167603,472.062408 
	C384.206726,471.305084 383.659943,470.625885 383.113159,469.946716 
	C384.626740,469.368347 386.140289,468.789978 389.105621,467.656891 
	C386.663818,466.534454 384.938324,465.694244 383.175354,464.941864 
	C380.463531,463.784546 378.270813,462.050446 379.924438,458.936066 
	C381.540070,455.893250 384.166534,455.099304 387.918152,458.209564 
	C385.977753,459.135712 384.597046,459.794708 382.964325,460.574005 
	C385.900208,463.260742 392.602081,462.250092 391.449158,468.335144 
	C391.149414,469.917358 387.624969,470.888641 385.167603,472.062408 
z"/>
<path fill="#C9C590" opacity="1.000000" stroke="none" 
	d="
M149.810242,470.687622 
	C152.507523,470.994751 154.878128,471.528168 157.248749,472.061554 
	C157.077652,472.921173 156.906540,473.780823 156.735443,474.640442 
	C155.101761,474.366180 153.468063,474.091949 151.417557,473.747742 
	C152.437683,475.884338 153.909210,477.807526 154.181686,479.887756 
	C154.418152,481.693054 153.793854,484.818970 152.659073,485.312439 
	C150.962296,486.050262 148.381271,485.268982 146.398453,484.534424 
	C145.769287,484.301331 145.848633,482.155792 145.603745,480.885406 
	C146.610657,481.302582 147.625107,481.702667 148.621521,482.143555 
	C149.182114,482.391571 149.712936,482.706879 150.585815,483.163940 
	C152.213150,478.653107 144.839645,475.237518 149.810242,470.687622 
z"/>
<path fill="#C9C590" opacity="1.000000" stroke="none" 
	d="
M322.965363,477.996094 
	C324.288605,478.759003 325.211334,479.502594 326.134094,480.246155 
	C324.786560,480.856537 323.438995,481.466888 321.797424,482.210419 
	C323.838196,485.491547 332.517029,486.132202 327.341248,492.843140 
	C325.290924,495.501648 322.040253,494.705719 318.272736,491.115143 
	C321.309082,490.869263 323.108093,490.723572 326.463531,490.451874 
	C324.104706,488.673523 322.448059,487.734772 321.211090,486.405487 
	C319.954376,485.054962 318.062073,483.073486 318.356781,481.815460 
	C318.713867,480.290955 321.072388,479.235291 322.965363,477.996094 
z"/>
<path fill="#C8C490" opacity="1.000000" stroke="none" 
	d="
M363.943848,474.128235 
	C364.890411,476.852875 365.502014,479.429901 369.069092,478.025330 
	C369.335510,477.920410 370.167664,479.252289 371.086639,480.324402 
	C368.502045,481.345551 366.415314,482.170044 363.871307,483.175171 
	C362.809570,480.488312 361.843201,478.072052 360.899811,475.646851 
	C360.002930,473.341309 359.130157,471.026398 358.053345,468.209534 
	C363.364838,467.094482 362.162048,471.915588 363.943848,474.128235 
z"/>
<path fill="#CBC691" opacity="1.000000" stroke="none" 
	d="
M213.074341,485.199615 
	C209.352509,486.393433 210.362473,489.680267 209.750595,492.351135 
	C209.300308,494.316711 208.156036,496.123322 207.320984,498.000763 
	C206.972519,495.975891 206.539047,493.961121 206.297440,491.923584 
	C206.005920,489.465240 208.879898,486.425842 204.916412,484.660767 
	C205.449371,483.779388 206.010330,482.131683 206.510422,482.149933 
	C208.618607,482.226959 210.708664,482.800873 212.913879,483.875488 
	C213.039688,484.771851 213.057007,484.985718 213.074341,485.199615 
z"/>
<path fill="#C2BE8D" opacity="1.000000" stroke="none" 
	d="
M213.458145,485.354675 
	C213.057007,484.985718 213.039688,484.771851 213.028381,484.236023 
	C214.374496,483.610992 215.714600,483.307861 217.948837,482.802460 
	C217.513947,488.048462 217.163162,492.863098 216.640961,497.659058 
	C216.589798,498.128937 215.484268,498.484009 214.868134,498.892365 
	C214.371704,498.040863 213.455963,497.191406 213.451752,496.337463 
	C213.433975,492.728943 213.687592,489.119080 213.458145,485.354675 
z"/>
<path fill="#C9C590" opacity="1.000000" stroke="none" 
	d="
M173.912201,481.830078 
	C174.159714,480.609711 174.156372,479.676208 174.583832,479.025879 
	C175.112762,478.221191 175.999237,477.651489 176.731247,476.980286 
	C177.092377,477.901550 177.898315,478.908661 177.739868,479.729645 
	C176.927475,483.939484 175.866837,488.101410 174.887772,492.302307 
	C171.571701,491.216034 171.571701,491.216034 173.912201,481.830078 
z"/>
<path fill="#C6C28F" opacity="1.000000" stroke="none" 
	d="
M317.191620,489.531616 
	C317.407379,490.590027 317.796661,491.289032 317.665771,491.871124 
	C317.389984,493.097992 316.841644,494.263580 316.405121,495.454315 
	C315.705536,494.522247 314.589630,493.674774 314.379883,492.643127 
	C313.564575,488.631927 313.036957,484.562286 313.092926,480.217987 
	C317.697449,481.576660 315.951660,486.090515 317.191620,489.531616 
z"/>
<path fill="#CBC791" opacity="1.000000" stroke="none" 
	d="
M294.880859,483.739990 
	C295.339203,487.721802 295.826324,491.310150 295.998016,494.913513 
	C296.056183,496.133667 295.316864,497.391846 294.941956,498.632660 
	C294.365112,498.568787 293.788269,498.504913 293.211426,498.441040 
	C292.748016,493.824860 292.217194,489.212524 291.953796,484.584961 
	C291.933563,484.228973 293.797882,483.765747 294.880859,483.739990 
z"/>
<path fill="#F0BB46" opacity="1.000000" stroke="none" 
	d="
M405.840790,341.770142 
	C401.159119,346.521576 396.725616,351.016724 391.905914,355.903442 
	C387.006439,350.419708 382.398987,345.262817 378.120941,340.474609 
	C371.945984,342.914581 367.219208,344.782318 362.108521,346.801758 
	C362.108521,353.481903 362.108521,360.439026 362.108521,367.779663 
	C354.091217,367.779663 346.399353,367.779663 338.149475,367.779663 
	C338.149475,361.392883 338.008698,355.104980 338.216705,348.828613 
	C338.303558,346.208618 337.347931,345.046082 334.994324,344.153381 
	C331.744171,342.920654 328.668762,341.227081 324.415710,339.207092 
	C319.620575,344.635498 314.473907,350.461853 309.451477,356.147583 
	C303.131104,349.840332 297.731171,344.451569 291.539062,338.272278 
	C296.423615,333.643555 301.372131,328.766144 306.545135,324.139801 
	C308.785583,322.136108 309.096710,320.390411 307.722321,317.740601 
	C306.365356,315.124420 305.586670,312.208282 304.408875,309.031494 
	C296.150116,309.031494 287.885956,309.031494 279.392944,309.031494 
	C279.392944,301.144135 279.392944,293.701691 279.392944,285.415527 
	C286.164795,285.415527 292.933594,285.213348 299.681885,285.497223 
	C303.286560,285.648834 304.404114,284.181244 305.981293,281.029480 
	C309.192932,274.611450 307.657166,270.406860 302.305786,266.370636 
	C298.348480,263.385925 294.858551,259.781525 291.286499,256.566620 
	C297.571838,250.311722 302.983307,244.926437 308.795197,239.142700 
	C313.546478,244.370026 318.534943,249.858307 323.230988,255.024872 
	C328.321716,252.633911 332.296936,250.981430 336.021179,248.883408 
	C337.100189,248.275543 338.007141,246.409988 338.054840,245.087173 
	C338.270203,239.116226 338.148895,233.133133 338.148895,226.787247 
	C346.072113,226.787247 353.656677,226.787247 362.006714,226.787247 
	C362.006714,232.297546 362.136810,237.875183 361.951447,243.442307 
	C361.859741,246.195816 362.482544,247.729980 365.491760,248.253845 
	C367.735535,248.644440 370.124725,249.463882 371.941437,250.788605 
	C376.151947,253.858856 378.910492,252.451385 381.844360,248.863235 
	C384.764404,245.291946 388.210266,242.150604 391.410522,238.836273 
	C397.160187,244.733948 402.477203,250.187866 407.962311,255.814163 
	C403.258942,260.240082 398.218719,264.983032 393.482880,269.439514 
	C395.118591,273.274658 396.745270,275.761841 397.212341,278.450439 
	C398.297791,284.698364 401.812775,286.255554 407.659149,285.519470 
	C411.888062,284.987030 416.237976,285.415588 420.765350,285.415588 
	C420.765350,293.496857 420.765350,301.071503 420.765350,309.166962 
	C414.623749,309.166962 408.672424,309.316559 402.734528,309.099091 
	C400.063599,309.001312 398.992401,310.015839 398.207001,312.424164 
	C396.976929,316.196045 395.318176,319.828156 393.479156,324.423706 
	C397.445343,328.217377 401.675964,332.440399 406.114197,336.432648 
	C408.241486,338.346191 408.457214,339.828308 405.840790,341.770142 
M331.070160,321.468719 
	C331.582031,321.892761 332.076996,322.339355 332.608276,322.737488 
	C344.150787,331.388000 358.999603,331.746063 370.208496,323.650208 
	C381.901672,315.204559 386.693146,299.772980 381.937836,285.874390 
	C377.386963,272.573364 365.020599,263.635254 351.116608,264.223694 
	C337.736755,264.789978 328.053314,271.545044 322.997620,283.868408 
	C317.330566,297.681946 320.105621,310.212585 331.070160,321.468719 
z"/>
<path fill="#DCD598" opacity="1.000000" stroke="none" 
	d="
M91.079765,337.987610 
	C90.870338,335.840454 90.479454,333.693298 90.478951,331.546112 
	C90.472244,303.249023 90.516861,274.951935 90.568687,246.654861 
	C90.570717,245.543411 90.773003,244.432312 90.979935,242.322113 
	C96.171638,247.641098 101.274490,245.596375 106.631844,243.855972 
	C124.414764,238.078903 141.964798,239.129486 159.308670,246.033966 
	C161.300644,246.826950 164.139297,246.836304 166.138412,246.059189 
	C184.856369,238.783096 203.640244,237.562119 222.534927,245.073044 
	C227.088821,246.883286 230.855804,246.042145 234.798996,242.317886 
	C234.798996,274.499268 234.798996,305.712372 234.354385,337.401855 
	C229.985474,340.236572 225.957596,340.635315 221.567902,339.073730 
	C216.888596,337.409119 212.100067,336.032867 207.315277,334.686981 
	C192.318726,330.468811 177.882202,330.261536 164.712143,340.374420 
	C163.674500,341.171204 160.945786,340.764374 159.567566,339.955261 
	C151.253418,335.074188 142.521744,332.089325 132.750671,331.887085 
	C122.891678,331.682983 113.884102,334.879822 104.616890,337.449524 
	C100.380508,338.624207 95.608727,337.868042 91.079765,337.987610 
z"/>
<path fill="#929487" opacity="1.000000" stroke="none" 
	d="
M90.811996,338.294678 
	C95.608727,337.868042 100.380508,338.624207 104.616890,337.449524 
	C113.884102,334.879822 122.891678,331.682983 132.750671,331.887085 
	C142.521744,332.089325 151.253418,335.074188 159.567566,339.955261 
	C160.945786,340.764374 163.674500,341.171204 164.712143,340.374420 
	C177.882202,330.261536 192.318726,330.468811 207.315277,334.686981 
	C212.100067,336.032867 216.888596,337.409119 221.567902,339.073730 
	C225.957596,340.635315 229.985474,340.236572 234.282654,337.855255 
	C234.761032,341.897003 234.866531,345.961700 234.469604,350.516235 
	C187.502441,351.014252 141.037674,351.024567 94.572914,351.020172 
	C93.246872,351.020050 91.920837,350.863861 90.594803,350.780457 
	C90.577942,346.720917 90.561089,342.661346 90.811996,338.294678 
z"/>
<path fill="#706560" opacity="1.000000" stroke="none" 
	d="
M90.446533,351.220886 
	C91.920837,350.863861 93.246872,351.020050 94.572914,351.020172 
	C141.037674,351.024567 187.502441,351.014252 234.425842,350.975739 
	C234.884491,353.723114 234.884491,356.500763 234.884491,359.847473 
	C232.435852,359.847473 230.482697,359.847473 228.529541,359.847473 
	C185.060211,359.847473 141.590881,359.847595 98.121552,359.847382 
	C89.921066,359.847321 89.921066,359.846741 90.446533,351.220886 
z"/>
<path fill="#7FAADE" opacity="1.000000" stroke="none" 
	d="
M290.157410,105.987625 
	C285.047455,104.458900 283.611023,101.268738 284.143860,96.470764 
	C284.573761,92.599342 284.230927,88.642120 284.230927,84.843407 
	C284.474701,84.612076 284.580109,84.421181 284.716736,84.395348 
	C296.474365,82.170769 296.700775,82.209694 294.759125,93.761002 
	C294.049561,97.982399 291.983124,101.975708 290.157410,105.987625 
z"/>
<path fill="#7DA8DE" opacity="1.000000" stroke="none" 
	d="
M219.964630,68.162216 
	C220.159317,65.508865 217.062027,62.379375 221.592758,61.302849 
	C228.689194,59.616688 231.926926,60.792927 233.025223,65.359726 
	C235.370911,75.113281 235.372314,75.118065 225.682510,77.916145 
	C224.740433,78.188179 223.767715,78.354118 222.249619,78.694923 
	C221.484314,75.255669 220.741852,71.919090 219.964630,68.162216 
z"/>
<path fill="#7CA7DD" opacity="1.000000" stroke="none" 
	d="
M288.053589,51.965641 
	C289.085846,54.248192 289.970367,56.191360 291.345184,59.211605 
	C286.480133,60.097908 281.250488,62.696194 277.976501,61.150944 
	C275.114899,59.800331 272.873993,53.575783 273.365173,49.906982 
	C273.703705,47.378735 279.171875,45.537289 283.044189,42.917557 
	C284.920349,46.278263 286.413116,48.952263 288.053589,51.965641 
z"/>
<path fill="#7DA8DD" opacity="1.000000" stroke="none" 
	d="
M223.033875,36.093029 
	C223.487366,35.675381 223.940857,35.257736 224.679199,34.703224 
	C229.116180,35.747910 230.578415,38.422329 230.201263,42.730495 
	C229.945892,45.647408 230.439255,48.675812 230.923813,51.600319 
	C231.578415,55.551048 230.029968,57.151184 226.142487,56.937649 
	C224.027725,56.821487 221.901337,56.916927 218.582870,56.916927 
	C219.813965,50.534134 220.949265,44.647964 222.027863,38.353157 
	C221.971146,37.944523 222.000168,37.989273 222.256699,37.888985 
	C222.686783,37.223476 222.860336,36.658253 223.033875,36.093029 
z"/>
<path fill="#7CA7DD" opacity="1.000000" stroke="none" 
	d="
M252.854034,117.722496 
	C252.337097,118.118500 251.895462,118.106354 251.125244,118.026962 
	C245.066544,112.834221 239.336441,107.708733 232.926941,101.975525 
	C237.358643,99.561256 240.621613,97.783691 243.889084,96.003670 
	C247.224503,100.990555 250.660660,105.455528 253.255447,110.365181 
	C254.188644,112.130920 253.096954,114.966835 252.854034,117.722496 
z"/>
<path fill="#7CA7DD" opacity="1.000000" stroke="none" 
	d="
M256.156494,60.821823 
	C255.662094,59.029327 255.275589,57.621937 254.771652,55.786949 
	C259.097931,54.177578 263.208679,52.648373 267.997253,50.867035 
	C269.803772,55.079750 271.572235,59.203701 273.579163,63.883659 
	C268.379181,65.417908 263.862366,66.750595 258.858124,68.227089 
	C257.931763,65.719841 257.098083,63.463383 256.156494,60.821823 
z"/>
<path fill="#7DA8DD" opacity="1.000000" stroke="none" 
	d="
M237.584045,65.358459 
	C236.142181,61.331688 237.128616,59.333946 241.246292,58.909908 
	C244.174438,58.608360 247.040558,57.704575 250.372238,56.973476 
	C251.717636,61.000916 253.008194,64.864189 254.535049,69.434860 
	C249.442139,70.895172 244.810440,72.223244 239.755112,73.672783 
	C238.945923,70.517998 238.334900,68.135735 237.584045,65.358459 
z"/>
<path fill="#7EA7DA" opacity="1.000000" stroke="none" 
	d="
M208.365662,82.965820 
	C205.281769,75.981659 205.487000,68.813087 207.263412,61.260689 
	C209.706512,61.287331 211.983368,61.639290 214.444397,62.019718 
	C215.514572,67.833176 216.577682,73.608246 217.748749,79.969795 
	C214.860397,80.910271 211.800797,81.906502 208.365662,82.965820 
z"/>
<path fill="#7CA7DD" opacity="1.000000" stroke="none" 
	d="
M233.375793,80.148453 
	C235.208374,80.698746 237.326157,80.946701 237.937424,82.038292 
	C239.606522,85.018814 240.640198,88.355171 242.003448,91.744240 
	C240.997314,92.369957 240.209045,92.937950 239.354538,93.377090 
	C236.733215,94.724213 234.086502,96.021927 230.877121,97.624802 
	C228.437500,92.831268 226.147232,88.331169 223.619034,83.363609 
	C227.088470,82.201797 230.031113,81.216385 233.375793,80.148453 
z"/>
<path fill="#7CA6DA" opacity="1.000000" stroke="none" 
	d="
M221.833908,104.785355 
	C217.469009,99.316704 213.341141,93.572395 209.195282,87.485443 
	C219.123108,84.801704 219.123581,84.801460 223.871841,93.954926 
	C224.934677,96.003792 225.992889,98.055054 227.156769,100.305359 
	C225.367325,101.784645 223.719131,103.147171 221.833908,104.785355 
z"/>
<path fill="#7DA8DD" opacity="1.000000" stroke="none" 
	d="
M285.872620,79.827881 
	C282.676453,80.473373 282.315826,78.802376 281.791260,76.571968 
	C279.295685,65.961159 279.813293,65.123070 290.841614,63.857388 
	C291.305328,63.804169 291.796783,63.993122 292.896179,64.168030 
	C293.735931,68.689919 294.601257,73.349648 295.548889,78.452408 
	C292.065918,78.950928 289.181183,79.363823 285.872620,79.827881 
z"/>
<path fill="#7DA8DE" opacity="1.000000" stroke="none" 
	d="
M279.989441,95.048347 
	C279.996246,97.454758 279.996246,99.393219 279.996246,101.239708 
	C269.427948,102.697151 268.709381,102.024666 265.994049,88.141396 
	C270.053558,87.152115 274.149200,86.154030 278.946442,84.984962 
	C279.320770,88.451302 279.651703,91.515846 279.989441,95.048347 
z"/>
<path fill="#7CA7DD" opacity="1.000000" stroke="none" 
	d="
M249.939606,88.835815 
	C248.143661,88.536285 246.681076,88.186790 245.287659,87.655792 
	C244.958298,87.530273 244.870056,86.790504 244.656418,86.340164 
	C240.763474,78.133965 240.764832,78.140564 249.463074,75.629517 
	C251.363907,75.080780 253.246490,74.468781 255.885834,73.655251 
	C257.152710,77.532478 258.346039,81.184685 259.609802,85.052391 
	C256.113617,86.429276 253.205933,87.574387 249.939606,88.835815 
z"/>
<path fill="#7CA7DD" opacity="1.000000" stroke="none" 
	d="
M252.626923,101.355377 
	C251.210175,98.932640 249.995132,96.815559 248.418564,94.068550 
	C252.862991,92.450676 256.786194,91.022537 260.626923,89.624413 
	C266.903351,101.443642 266.769440,102.289360 257.524323,108.262962 
	C255.983246,106.096260 254.405945,103.878647 252.626923,101.355377 
z"/>
<path fill="#7BA7DD" opacity="1.000000" stroke="none" 
	d="
M277.834717,79.876602 
	C273.389038,81.514008 268.997345,82.754303 264.201904,84.108643 
	C262.863373,80.112656 261.676025,76.568100 260.310059,72.490181 
	C264.667419,71.212082 268.397705,69.886665 272.240631,69.144020 
	C273.275574,68.944016 275.295258,70.246834 275.744354,71.325516 
	C276.814392,73.895607 277.216705,76.743698 277.834717,79.876602 
z"/>
<path fill="#7CA7DD" opacity="1.000000" stroke="none" 
	d="
M249.724274,41.322075 
	C248.445633,38.722019 249.041992,37.277805 251.370132,36.232079 
	C253.161453,35.427475 254.768265,34.212112 256.951538,32.877083 
	C259.942902,37.376400 262.859985,41.763969 266.182739,46.761665 
	C261.672913,48.405872 257.712616,49.849731 253.128113,51.521175 
	C251.925552,47.901318 250.894043,44.796352 249.724274,41.322075 
z"/>
<path fill="#7BA7DD" opacity="1.000000" stroke="none" 
	d="
M248.140198,52.578278 
	C232.954315,56.521069 235.449417,57.022442 234.787903,42.610504 
	C234.743515,41.643745 234.935501,40.666130 235.012619,39.752247 
	C243.352692,37.754662 244.205460,38.169483 246.663635,45.676201 
	C247.377548,47.856335 247.846634,50.116646 248.140198,52.578278 
z"/>
<path fill="#83AADB" opacity="1.000000" stroke="none" 
	d="
M240.800659,115.674637 
	C235.743561,113.480652 230.549484,110.990486 225.165863,108.212830 
	C227.828354,104.429306 230.429779,103.823402 233.477585,107.973640 
	C235.494385,110.719925 238.242813,112.928917 240.800659,115.674637 
z"/>
<path fill="#7DA8DC" opacity="1.000000" stroke="none" 
	d="
M279.039062,113.690819 
	C277.739410,114.697037 276.444061,115.281960 274.860046,115.873627 
	C273.703491,112.918953 272.835602,109.957512 271.801025,106.427383 
	C274.592743,106.427383 277.024231,106.427383 279.974487,106.427383 
	C279.643280,108.861137 279.343323,111.065331 279.039062,113.690819 
z"/>
<path fill="#7EA8DC" opacity="1.000000" stroke="none" 
	d="
M270.210999,116.564301 
	C269.076294,117.275726 267.860291,117.606056 266.266907,117.895111 
	C264.280243,116.037857 262.671021,114.221870 260.670166,111.963951 
	C262.788574,110.443802 264.667542,109.095490 267.164856,107.303452 
	C268.308014,110.727249 269.218872,113.455223 270.210999,116.564301 
z"/>
<path fill="#7FA8D9" opacity="1.000000" stroke="none" 
	d="
M209.194366,56.906700 
	C210.941818,52.577374 213.146240,48.302231 215.647171,43.818054 
	C215.515289,47.877888 215.086914,52.146759 214.603806,56.960888 
	C212.841888,56.960888 211.246628,56.960888 209.194366,56.906700 
z"/>
<path fill="#7FA8DB" opacity="1.000000" stroke="none" 
	d="
M244.594757,25.435497 
	C245.738083,24.709278 246.984604,24.370169 248.619873,24.062347 
	C250.361801,25.686026 251.714996,27.278421 253.467926,29.341196 
	C251.471588,30.741390 249.705597,31.980036 247.188995,33.745129 
	C246.211105,30.635010 245.454529,28.228809 244.594757,25.435497 
z"/>
<path fill="#84ABDC" opacity="1.000000" stroke="none" 
	d="
M235.782211,28.086605 
	C236.909927,27.592028 238.037659,27.097450 239.540039,26.527109 
	C240.769424,28.989475 241.624146,31.527605 242.502884,34.137032 
	C235.645401,35.502384 235.155334,35.167839 235.046570,29.367077 
	C234.977783,28.945625 235.002304,28.991657 235.196747,28.936293 
	C235.644257,28.676569 235.774597,28.411795 235.782211,28.086605 
z"/>
<path fill="#F9FAFD" opacity="1.000000" stroke="none" 
	d="
M222.735596,36.211250 
	C222.860336,36.658253 222.686783,37.223476 222.230103,37.891388 
	C222.110413,37.439209 222.273865,36.884338 222.735596,36.211250 
z"/>
<path fill="#F9FAFD" opacity="1.000000" stroke="none" 
	d="
M235.537109,28.133511 
	C235.774597,28.411795 235.644257,28.676569 235.170624,28.937359 
	C235.064041,28.722666 235.178024,28.451542 235.537109,28.133511 
z"/>
<path fill="#172944" opacity="1.000000" stroke="none" 
	d="
M267.937134,493.743042 
	C266.297119,497.375153 263.606964,498.845184 260.766632,496.569824 
	C259.376038,495.455750 258.627136,492.103333 259.257263,490.371399 
	C259.737793,489.050659 263.204285,487.662384 264.686768,488.180450 
	C266.208893,488.712402 266.934814,491.522675 267.937134,493.743042 
z"/>
<path fill="#122540" opacity="1.000000" stroke="none" 
	d="
M330.815796,321.213867 
	C320.105621,310.212585 317.330566,297.681946 322.997620,283.868408 
	C328.053314,271.545044 337.736755,264.789978 351.116608,264.223694 
	C365.020599,263.635254 377.386963,272.573364 381.937836,285.874390 
	C386.693146,299.772980 381.901672,315.204559 370.208496,323.650208 
	C358.999603,331.746063 344.150787,331.388000 332.608276,322.737488 
	C332.076996,322.339355 331.582031,321.892761 330.815796,321.213867 
M342.071594,314.698883 
	C353.491241,319.331390 364.192291,316.021027 369.616302,306.178009 
	C374.534546,297.252777 372.030334,285.890259 363.821014,279.882599 
	C354.353363,272.954071 341.342712,275.042389 334.738190,284.550629 
	C327.667450,294.730042 330.381348,306.778137 342.071594,314.698883 
z"/>
<path fill="#EEB946" opacity="1.000000" stroke="none" 
	d="
M341.754089,314.493164 
	C330.381348,306.778137 327.667450,294.730042 334.738190,284.550629 
	C341.342712,275.042389 354.353363,272.954071 363.821014,279.882599 
	C372.030334,285.890259 374.534546,297.252777 369.616302,306.178009 
	C364.192291,316.021027 353.491241,319.331390 341.754089,314.493164 
M340.065216,297.357330 
	C340.459900,298.789856 340.656372,300.316772 341.285492,301.637665 
	C343.399567,306.076111 348.527008,308.593140 353.784576,307.949463 
	C358.804749,307.334869 363.022217,303.280151 363.839111,298.283020 
	C364.570496,293.808777 362.081726,288.954254 357.855865,286.612183 
	C350.072418,282.298431 341.647614,286.996582 340.065216,297.357330 
z"/>
<path fill="#132640" opacity="1.000000" stroke="none" 
	d="
M340.044861,296.956665 
	C341.647614,286.996582 350.072418,282.298431 357.855865,286.612183 
	C362.081726,288.954254 364.570496,293.808777 363.839111,298.283020 
	C363.022217,303.280151 358.804749,307.334869 353.784576,307.949463 
	C348.527008,308.593140 343.399567,306.076111 341.285492,301.637665 
	C340.656372,300.316772 340.459900,298.789856 340.044861,296.956665 
z"/>
</svg>