<svg xmlns="http://www.w3.org/2000/svg" width="248" height="244.33" viewBox="0 0 248 244.33">
 <g transform="matrix(1.3333 0 0 -1.3333 -392.22 659.8)">
  <g>
   <path d="m365.69 482.73-27.855-27.428v-23.791c7.9277 2.2168 15.54 3.5758 23.385 4.7578v9.3896l14.121 13.772h24.876l13.849-13.863v-9.2388c7.8383-1.1543 15.41-2.5998 23.341-4.79v23.634l-27.557 27.557h-44.159zm48.41-110.66-0.0205-11.563-13.733-14.049h-25.121l-14.02 14.014v11.521c-8.273-1.6372-16.38-3.9852-23.323-6.977v-14.326l27.7-27.63h44.373l27.463 27.759 0.0044 14.221c-7.3047 3.0945-14.738 5.3433-23.323 7.0312z" fill="#ce0f3d"/>
   <path d="m361.4 493.04-33.809-33.195 0.05273-26.049c-10.556-3.3783-21.63-7.4121-31.859-12.921v-5.4902c11.248 6.4909 28.049 12.098 37.167 14.776v27.233l30.766 30.261h48.199l30.401-30.05-0.03809-27.347c10.521-2.9545 26.257-8.9276 36.39-14.578v5.4902c-10.195 5.4707-20.288 9.1384-31.058 12.583l-0.0337 25.991-33.378 33.297h-52.802zm15.995-38.492-11.284-11.049v-6.5493c1.9185 0.24751 3.4094 0.31771 5.3086 0.50244v3.8833l8.0874 7.8852h16.409l7.8955-7.8516v-3.8291c1.8992-0.17869 3.5134-0.41745 5.4331-0.65772v6.6108l-11.082 11.055h-20.769zm26.571-80.993v-8.8066l-7.8853-7.9219h-16.635l-8.0142 7.7827v8.9092c-1.9306-0.24873-3.432-0.29346-5.3203-0.62549v-10.459l11.137-11.065h20.867l11.128 11.191v10.211c-1.8884 0.32238-3.3472 0.54342-5.2778 0.78369zm-70.997-10.629c-5.5817-2.7118-9.487-5.1134-13.488-8.0449v-6.3223c2.4087 1.9173 5.392 4.4357 8.105 6.0234v-8.0332l33.902-33.756h52.51l33.584 33.609-0.00146 7.8765c3.796-2.2783 7.1606-4.572 10.282-7.2246v6.208c-4.5712 3.4954-9.6986 6.9023-15.53 9.6636l-0.02929-14.165-30.352-30.639h-48.376l-30.606 30.467v14.336z" fill="#b0b7bc"/>
   <path d="m381.46 444.27-5.1152-5.0288v-34.138l5.5532-5.2764h9.331v-31.116h-7.437v20.93h-7.4473v-22.874l5.1284-5.0449 12.466-0.07764 5.064 5.1226v36.5l-5.606 5.2354-9.4175-0.00586-0.02344 28.018 7.273-0.03369v-17.965h7.6714l0.02344 20.75-5.0215 5.0039-12.442 0.00146zm19.099-10.956 0.01172-7.1265c2.0332-0.19801 5.1372-0.54785 5.1372-0.54785l-0.00586-48.158c2.5343-0.36584 4.95-0.69078 7.2524-1.1001v48.369s2.829-0.39719 5.4067-0.83789v7.1909c-6.1432 1.0854-11.626 1.6635-17.802 2.2104zm-34.523-0.89501c-3.2249-0.42983-6.4714-0.81824-9.7266-1.4268l-4.0444-5.3159v-47.304l3.7236-3.2944c4.1438 0.99729 7.2455 1.5021 11.246 2.1167l3.5083 4.4092v46.194l-4.7065 4.6216zm58.499-2.4434-4.5088-4.125v-50.953c2.2771-0.59162 4.5287-1.0549 6.731-1.7637v25.395l4.4048-1.2568v-25.646c2.2747-0.83913 4.5025-1.569 6.6782-2.5312v51.817l-3.8628 6.9507c-3.2805 0.88502-6.1595 1.4111-9.4424 2.1138zm-75.94-0.45118c-2.2651-0.51917-4.6717-0.95713-6.9331-1.5644v-57.076c2.2844 0.76669 4.3964 1.4891 6.9331 2.2485v56.392zm-10.512-2.5649c-2.3508-0.68097-4.6928-1.1909-7.0327-2.0566v-23.206l-4.6611-1.7549v23.552c-2.3653-0.85242-4.5646-1.4846-6.9009-2.436v-61.229c2.4824 1.7145 3.915 2.6345 6.9009 4.4443v27.977s2.6412 1.1448 4.6611 1.8354v-27.4c2.2783 1.1036 4.6408 1.8366 7.0254 2.8447l0.00732 57.429zm102.03-0.73974v-7.4297c0.52038-0.14851 5.5415-1.6963 5.5415-1.6963l0.01318-51.347c2.4606-1.2303 4.6083-2.3834 6.813-3.813v52.771s6.0825-2.3491 6.5244-2.5459v7.6626c-6.0611 2.5766-12.656 4.4908-18.892 6.3984zm-76.289-1.626v-40.764l-4.749-0.89063v41.017l4.749 0.63721zm62.93-2.4023 4.4048-1.0356v-16.342l-4.4048 1.0518v16.326zm34.726-3.2783v-77.802c5.071-3.8564 12.513-9.7516 17.172-13.702v9.3281c-3.179 2.5742-9.7236 7.8457-9.7236 7.8457v28.39s6.7209-3.6512 9.7236-5.4756v8.855c-2.9291 1.8292-10.02 5.5928-10.02 5.5928l0.01318 25.827s6.5948-3.2733 10.009-5.2075v8.1914c-5.4827 3.2406-11.364 5.551-17.175 8.1577zm-151.61-1.5762c-3.6451-1.706-7.1408-3.3001-10.636-5.2573l-3.561-6.7983v-72.636l5.6382-3.7778c0.94176 0.58799 9.7943 5.9507 10.359 6.2622l3.3779 7.0972v71.328l-5.1782 3.7822zm-1.771-8.6646-0.01026-67.4-5.1753-3.5215v68.206l5.1856 2.7158z"/>
  </g>
 </g>
</svg>